<?xml version="1.0" encoding="iso-8859-1"?>
<!-- Generator: Adobe Illustrator 19.0.0, SVG Export Plug-In . SVG Version: 6.00 Build 0)  -->
<svg version="1.1" id="Capa_1" xmlns="http://www.w3.org/2000/svg" xmlns:xlink="http://www.w3.org/1999/xlink" x="0px" y="0px"
	 viewBox="0 0 511.999 511.999" style="enable-background:new 0 0 511.999 511.999;" xml:space="preserve">
<path style="fill:#FE8F8D;" d="M29.038,161.362v184.036c0,20.815,11.298,39.991,29.505,50.079L246.09,499.387
	c6.165,3.416,13.649,3.419,19.814,0.003c32.402-17.953,136.119-75.417,187.558-103.917c18.208-10.088,29.501-29.261,29.501-50.077
	V161.362c0-20.815-11.298-39.991-29.506-50.079l-169.71-94.03c-17.261-9.564-38.231-9.564-55.493,0l-169.71,94.029
	C40.336,121.371,29.038,140.546,29.038,161.362z"/>
<path style="fill:#FEB1AF;" d="M256,254.902l220.21-120.503c-5.111-9.573-12.922-17.67-22.752-23.117L364.236,61.85l-80.492-44.597
	c-17.261-9.563-38.23-9.563-55.492,0.001L58.544,111.283c-9.387,5.201-16.931,12.822-22.044,21.834L256,254.902z"/>
<path style="fill:#FFCFCE;" d="M256,256.446v245.504c0.061,0,0.122-0.005,0.184-0.006c0.365-0.003,0.73-0.011,1.094-0.034
	c0.095-0.006,0.189-0.019,0.285-0.027c0.331-0.025,0.662-0.052,0.991-0.093c0.01-0.001,0.02-0.003,0.03-0.005
	c1.832-0.234,3.635-0.724,5.366-1.455c0.663-0.28,1.317-0.587,1.954-0.94c29.792-16.506,119.862-66.41,174.164-96.496
	c0.242-0.134,0.481-0.267,0.722-0.4c4.492-2.488,8.736-4.84,12.672-7.021c18.208-10.088,29.501-29.26,29.501-50.077V161.362
	c0-9.567-2.392-18.783-6.738-26.934L256,256.446z"/>
<g>
	<ellipse style="fill:#FFFFFF;" cx="256.179" cy="125.392" rx="25.205" ry="22.057"/>
	
		<ellipse transform="matrix(0.7071 -0.7071 0.7071 0.7071 -139.9501 219.7192)" style="fill:#FFFFFF;" cx="195.249" cy="278.794" rx="22.056" ry="25.204"/>
	
		<ellipse transform="matrix(0.7071 -0.7071 0.7071 0.7071 -182.4099 189.6341)" style="fill:#FFFFFF;" cx="137.704" cy="315.005" rx="22.056" ry="25.204"/>
	
		<ellipse transform="matrix(0.7071 -0.7071 0.7071 0.7071 -223.1218 158.8215)" style="fill:#FFFFFF;" cx="80.154" cy="348.743" rx="22.056" ry="25.204"/>
	
		<ellipse transform="matrix(0.7071 0.7071 -0.7071 0.7071 307.9744 -148.6814)" style="fill:#FFFFFF;" cx="333.461" cy="297.417" rx="22.056" ry="25.204"/>
	
		<ellipse transform="matrix(0.7071 0.7071 -0.7071 0.7071 360.4843 -196.8508)" style="fill:#FFFFFF;" cx="417.862" cy="336.718" rx="22.056" ry="25.204"/>
</g>
<path d="M458.316,102.514L288.605,8.484c-20.416-11.312-44.794-11.312-65.209,0L53.684,102.514
	c-21.387,11.849-34.672,34.398-34.672,58.848v184.036c0,24.449,13.285,46.999,34.672,58.848l187.547,103.911
	c4.625,2.563,9.697,3.843,14.77,3.843c5.07,0,10.14-1.28,14.761-3.841L458.32,404.241c21.384-11.847,34.667-34.396,34.667-58.845
	V161.362C492.988,136.912,479.703,114.362,458.316,102.514z M63.402,120.053l169.71-94.028c7.165-3.97,15.027-5.955,22.888-5.955
	s15.722,1.985,22.888,5.955l169.711,94.028c5.12,2.837,9.559,6.563,13.211,10.902L279.249,232.103
	c-14.247,7.893-31.876,7.821-46.062-0.167l-0.523-0.291L51.995,128.931C55.279,125.456,59.097,122.438,63.402,120.053z
	 M472.936,345.397c0,17.163-9.324,32.991-24.333,41.306L266.026,487.861V440.47c0-5.537-4.489-10.026-10.026-10.026
	s-10.026,4.488-10.026,10.026v47.392L63.402,386.706c-15.013-8.318-24.339-24.147-24.339-41.309V161.362
	c0-5.277,0.888-10.424,2.546-15.268l184.495,104.845c12.255,6.799,19.869,19.731,19.869,33.747c0,0.007,0.001,0.013,0.001,0.019
	v0.363c0,0.01,0,0.019,0,0.029c0,0.003,0,0.006,0,0.01v90.955c0,5.537,4.489,10.026,10.026,10.026
	c5.537,0,10.026-4.489,10.026-10.026v-90.979c0.005-14.01,7.617-26.934,19.868-33.732l3.594-1.994
	c0.016-0.009,181.706-100.678,181.706-100.678c1.138,4.075,1.74,8.336,1.74,12.684v184.035H472.936z"/>
<path d="M256.178,157.471c19.428,0,35.233-14.392,35.233-32.082s-15.806-32.082-35.233-32.082
	c-19.427,0-35.234,14.392-35.234,32.082S236.75,157.471,256.178,157.471z M256.178,113.357c8.371,0,15.182,5.397,15.182,12.031
	c0,6.634-6.81,12.031-15.182,12.031c-8.372,0-15.182-5.397-15.182-12.031C240.996,118.754,247.806,113.357,256.178,113.357z"/>
<path d="M256,397.048c-2.637,0-5.223,1.073-7.088,2.938c-1.865,1.865-2.938,4.441-2.938,7.088c0,2.637,1.073,5.223,2.938,7.088
	c1.865,1.865,4.451,2.938,7.088,2.938c2.637,0,5.223-1.073,7.088-2.938s2.938-4.451,2.938-7.088s-1.073-5.223-2.938-7.088
	S258.637,397.048,256,397.048z"/>
<path d="M170.34,253.883c-12.509,12.509-11.509,33.862,2.229,47.6c7.292,7.291,16.726,10.993,25.846,10.993
	c8.064,0,15.883-2.895,21.753-8.766c12.509-12.509,11.51-33.862-2.229-47.6C204.203,242.375,182.848,241.374,170.34,253.883z
	 M205.989,289.533c-4.69,4.691-13.323,3.693-19.241-2.228c-5.919-5.919-6.919-14.551-2.229-19.241
	c1.99-1.991,4.691-2.957,7.592-2.957c3.936,0,8.242,1.777,11.65,5.184C209.681,276.21,210.681,284.842,205.989,289.533z"/>
<path d="M112.791,290.094c-12.509,12.509-11.509,33.862,2.228,47.6c7.292,7.291,16.726,10.993,25.847,10.993
	c8.064,0,15.883-2.895,21.753-8.766l0,0c12.508-12.509,11.509-33.862-2.228-47.6C146.653,278.586,125.301,277.586,112.791,290.094z
	 M148.44,325.744L148.44,325.744c-4.69,4.69-13.323,3.691-19.241-2.229c-5.919-5.919-6.919-14.551-2.228-19.241
	c1.99-1.991,4.691-2.957,7.592-2.957c3.936,0,8.242,1.777,11.649,5.184C152.131,312.421,153.131,321.053,148.44,325.744z"/>
<path d="M102.842,326.059c-13.738-13.737-35.09-14.737-47.6-2.229c-12.509,12.509-11.51,33.862,2.228,47.6
	c7.292,7.291,16.726,10.993,25.846,10.993c8.064,0,15.883-2.895,21.753-8.766c6.241-6.24,9.338-14.766,8.722-24.006
	C113.209,340.918,109.32,332.538,102.842,326.059z M90.891,359.479L90.891,359.479c-4.691,4.69-13.323,3.693-19.242-2.228
	c-5.919-5.919-6.919-14.551-2.228-19.242c1.99-1.991,4.69-2.957,7.592-2.957c3.936,0,8.242,1.778,11.65,5.185
	c3.044,3.043,4.862,6.861,5.121,10.75C94.01,354.372,92.982,357.388,90.891,359.479z"/>
<path d="M310.765,274.734c-13.737,13.737-14.737,35.09-2.229,47.599l0,0c5.87,5.87,13.688,8.766,21.753,8.766
	c9.12,0,18.557-3.704,25.847-10.993c13.737-13.737,14.736-35.09,2.228-47.6C345.855,259.997,324.502,260.998,310.765,274.734z
	 M341.959,305.927c-5.919,5.919-14.552,6.919-19.243,2.228c-4.691-4.691-3.69-13.323,2.229-19.242
	c5.92-5.92,14.551-6.919,19.241-2.229C348.877,291.375,347.877,300.008,341.959,305.927z"/>
<path d="M395.174,314.028c-6.479,6.479-10.368,14.858-10.95,23.595c-0.616,9.24,2.482,17.766,8.722,24.006
	c5.87,5.87,13.688,8.766,21.753,8.766c9.12,0,18.556-3.703,25.846-10.993c13.737-13.738,14.737-35.091,2.228-47.6
	C430.264,299.291,408.911,300.291,395.174,314.028z M426.367,345.221c-5.92,5.92-14.552,6.918-19.241,2.228l0,0
	c-2.091-2.091-3.119-5.107-2.893-8.493c0.259-3.888,2.078-7.707,5.121-10.75c3.408-3.408,7.714-5.185,11.65-5.185
	c2.901,0,5.602,0.966,7.592,2.957C433.285,330.67,432.286,339.302,426.367,345.221z"/>
<g>
</g>
<g>
</g>
<g>
</g>
<g>
</g>
<g>
</g>
<g>
</g>
<g>
</g>
<g>
</g>
<g>
</g>
<g>
</g>
<g>
</g>
<g>
</g>
<g>
</g>
<g>
</g>
<g>
</g>
</svg>
